{
  "title": "Sherlock - Season 1 (2010) 720p MKV x264 AC3 BRrip [Pioneer]",
  "uid": 8350559,
  "size": 6493052950,
  "categoryP": "video",
  "categoryS": "hd___tv_shows",
  "magnet": "?xt=urn:btih:bbf33ca97b339a177a50d04760011bb057f805c8&amp;dn=Sherlock+-+Season+1+%282010%29+720p+MKV+x264+AC3+BRrip+%5BPioneer%5D&amp;tr=udp%3A%2F%2Ftracker.openbittorrent.com%3A80&amp;tr=udp%3A%2F%2Fopen.demonii.com%3A1337&amp;tr=udp%3A%2F%2Ftracker.coppersurfer.tk%3A6969&amp;tr=udp%3A%2F%2Fexodus.desync.com%3A6969",
  "seeders": 47,
  "leechers": 7,
  "uploader": "Pioneer47",
  "files": -1,
  "time": 1365331591,
  "description": "Three-part BBC mini-series offering a fast-paced modernised adaptation of the classic detective novels by Arthur Conan Doyle. Laptops, mobile phones and the internet are the new tools for crime in a modern London under threat from serial killers, bombings and gang warfare. Sherlock Holmes (Benedict Cumberbatch), the most brilliant intellect of his generation, has a unique analytical brain unlike anyone else's, and staves off the ever-present threat of boredom by solving crimes, the more intricate and baffling the better. Meanwhile, his friend and flatmate John Watson (Martin Freeman) is an army doctor invalided home from the battlefields of Afghanistan. Rupert Graves, Una Stubbs and Zoe Telford co-star. Episodes are: 'A Study in Pink', 'The Blind Banker' and 'The Great Game'.\n\nStarring: Benedict Cumberbatch, Martin Freeman, Rupert Graves\nDirectors: Euros Lyn, Paul McGuigan\n\n &lt;a href=&quot;\nhttp://www.imdb.com/title/tt1475582/&quot; rel=&quot;nofollow&quot; target=&quot;_NEW&quot;&gt;\nhttp://www.imdb.com/title/tt1475582/&lt;/a&gt;\n\n\n &lt;a href=&quot;\nhttp://stpicz.com/0048_vlcsnap_2013_02_24_20h23m20s37_wdqx.png&quot; rel=&quot;nofollow&quot; target=&quot;_NEW&quot;&gt;\nhttp://stpicz.com/0048_vlcsnap_2013_02_24_20h23m20s37_wdqx.png&lt;/a&gt; &lt;a href=&quot;\nhttp://stpicz.com/8347_vlcsnap_2013_02_24_20h26m21s49_pd0g.png&quot; rel=&quot;nofollow&quot; target=&quot;_NEW&quot;&gt;\nhttp://stpicz.com/8347_vlcsnap_2013_02_24_20h26m21s49_pd0g.png&lt;/a&gt; &lt;a href=&quot;\nhttp://stpicz.com/8088_vlcsnap_2013_02_24_20h28m01s1_8dub.png&quot; rel=&quot;nofollow&quot; target=&quot;_NEW&quot;&gt;\nhttp://stpicz.com/8088_vlcsnap_2013_02_24_20h28m01s1_8dub.png&lt;/a&gt; &lt;a href=&quot;\nhttp://stpicz.com/7079_vlcsnap_2013_02_24_18h35m30s108_u5oh.png&quot; rel=&quot;nofollow&quot; target=&quot;_NEW&quot;&gt;\nhttp://stpicz.com/7079_vlcsnap_2013_02_24_18h35m30s108_u5oh.png&lt;/a&gt; &lt;a href=&quot;\nhttp://stpicz.com/5843_vlcsnap_2013_02_24_17h48m48s250_z1a4.png&quot; rel=&quot;nofollow&quot; target=&quot;_NEW&quot;&gt;\nhttp://stpicz.com/5843_vlcsnap_2013_02_24_17h48m48s250_z1a4.png&lt;/a&gt; &lt;a href=&quot;\nhttp://stpicz.com/0352_vlcsnap_2013_02_24_20h30m03s227_a1en.png&quot; rel=&quot;nofollow&quot; target=&quot;_NEW&quot;&gt;\nhttp://stpicz.com/0352_vlcsnap_2013_02_24_20h30m03s227_a1en.png&lt;/a&gt; &lt;a href=&quot;\nhttp://stpicz.com/9073_vlcsnap_2013_02_24_17h51m06s91_yoa9.png&quot; rel=&quot;nofollow&quot; target=&quot;_NEW&quot;&gt;\nhttp://stpicz.com/9073_vlcsnap_2013_02_24_17h51m06s91_yoa9.png&lt;/a&gt;\n\n\nGeneral\nUnique ID: 170201618818578987796275864083258754677 (0x800BA3B175FD16F0B290078530BD4675)\nComplete name: E:Sherlock (2010) S01 (A Study in Pink) 720p MKV x264 AC3 BRrip [Pioneer]\nFormat: Matroska\nFormat version: Version 2\nFile size: 2.10 GiB\nDuration: 1h 28mn\nOverall bit rate: 3 419 Kbps\nWriting application: HandBrake 0.9.8\nWriting library: libmkv 0.6.5\n\nVideo\nID: 1\nFormat: AVC\nFormat/Info: Advanced Video Codec\nFormat profile: &lt;a class=&quot;__cf_email__&quot; href=&quot;/cdn-cgi/l/email-protection&quot; data-cfemail=&quot;0a42636d624a463e243a&quot;&gt;[email&amp;#160;protected]&lt;/a&gt;&lt;script cf-hash='f9e31' type=&quot;text/javascript&quot;&gt;\n/* &lt;![CDATA[ */!function(){try{var t=&quot;currentScript&quot;in document?document.currentScript:function(){for(var t=document.getElementsByTagName(&quot;script&quot;),e=t.length;e--;)if(t[e].getAttribute(&quot;cf-hash&quot;))return t[e]}();if(t&amp;&amp;t.previousSibling){var e,r,n,i,c=t.previousSibling,a=c.getAttribute(&quot;data-cfemail&quot;);if(a){for(e=&quot;&quot;,r=parseInt(a.substr(0,2),16),n=2;a.length-n;n+=2)i=parseInt(a.substr(n,2),16)^r,e+=String.fromCharCode(i);e=document.createTextNode(e),c.parentNode.replaceChild(e,c)}}}catch(u){}}();/* ]]&gt; */&lt;/script&gt;\nFormat settings, CABAC: Yes\nFormat settings, ReFrames: 5 frames\nCodec ID: V_MPEG4/ISO/AVC\nDuration: 1h 28mn\nBit rate: 2 903 Kbps\nWidth: 1 280 pixels\nHeight: 720 pixels\nDisplay aspect ratio: 16:9\nFrame rate mode: Constant\nFrame rate: 25.000 fps\nColor space: YUV\nChroma subsampling: 4:2:0\nBit depth: 8 bits\nScan type: Progressive\nBits/(Pixel*Frame): 0.126\nStream size: 1.79 GiB (85%)\nWriting library: x264 core 120\nLanguage: English\nDefault: Yes\nForced: No\nColor primaries: BT.709\nTransfer characteristics: BT.709\nMatrix coefficients: BT.709\n\nAudio\nID: 2\nFormat: AC-3\nFormat/Info: Audio Coding 3\nMode extension: CM (complete main)\nFormat settings, Endianness: Big\nCodec ID: A_AC3\nDuration: 1h 28mn\nBit rate mode: Constant\nBit rate: 448 Kbps\nChannel(s): 6 channels\nChannel positions: Front: L C R, Side: L R, LFE\nSampling rate: 48.0 KHz\nBit depth: 16 bits\nCompression mode: Lossy\nStream size: 282 MiB (13%)\nLanguage: English\nDefault: Yes\nForced: No",
  "parsed": {
    "xt": "urn:btih:bbf33ca97b339a177a50d04760011bb057f805c8",
    "dn": "Sherlock - Season 1 (2010) 720p MKV x264 AC3 BRrip [Pioneer]",
    "tr": [
      "udp://exodus.desync.com:6969",
      "udp://open.demonii.com:1337",
      "udp://tracker.coppersurfer.tk:6969",
      "udp://tracker.openbittorrent.com:80"
    ],
    "infoHash": "bbf33ca97b339a177a50d04760011bb057f805c8",
    "infoHashBuffer": {
      "type": "Buffer",
      "data": [
        187,
        243,
        60,
        169,
        123,
        51,
        154,
        23,
        122,
        80,
        208,
        71,
        96,
        1,
        27,
        176,
        87,
        248,
        5,
        200
      ]
    },
    "name": "Sherlock - Season 1 (2010) 720p MKV x264 AC3 BRrip [Pioneer]",
    "announce": [
      "udp://exodus.desync.com:6969",
      "udp://open.demonii.com:1337",
      "udp://tracker.coppersurfer.tk:6969",
      "udp://tracker.openbittorrent.com:80"
    ],
    "urlList": []
  },
  "previous": 20,
  "peers": 7,
  "last_updated": "2016-12-27T11:35:03.993Z"
}